<?xml version="1.0" encoding="UTF-8"?>
<!DOCTYPE svg PUBLIC "-//W3C//DTD SVG 1.1//EN" "http://www.w3.org/Graphics/SVG/1.1/DTD/svg11.dtd">
<svg xmlns="http://www.w3.org/2000/svg" version="1.1" width="1252px" height="1658px" style="shape-rendering:geometricPrecision; text-rendering:geometricPrecision; image-rendering:optimizeQuality; fill-rule:evenodd; clip-rule:evenodd" xmlns:xlink="http://www.w3.org/1999/xlink">
<g><path style="opacity:0.017" fill="#fefffe" d="M 1249.5,-0.5 C 1250.17,-0.5 1250.83,-0.5 1251.5,-0.5C 1251.5,0.166667 1251.5,0.833333 1251.5,1.5C 1250.5,1.16667 1249.83,0.5 1249.5,-0.5 Z"/></g>
<g><path style="opacity:0.224" fill="#f7f8fa" d="M 827.5,98.5 C 611.238,69.8727 423.904,129.706 265.5,278C 142.93,400.878 75.4296,549.378 63,723.5C 56.6082,850.922 83.7749,970.588 144.5,1082.5C 145.365,1083.58 146.365,1083.75 147.5,1083C 222.998,1039.09 298.331,994.919 373.5,950.5C 372.117,948.68 371.117,946.68 370.5,944.5C 372.65,945.748 374.65,947.248 376.5,949C 375.186,955.281 371.519,959.614 365.5,962C 361.415,962.876 357.415,964.042 353.5,965.5C 347.515,972.126 340.515,976.626 332.5,979C 332.833,979.333 333.167,979.667 333.5,980C 329.233,981.785 324.9,983.285 320.5,984.5C 320.5,985.5 320.5,986.5 320.5,987.5C 319.127,987.343 317.793,987.51 316.5,988C 311.321,992.006 305.988,995.84 300.5,999.5C 297.618,1000.96 294.618,1002.13 291.5,1003C 291.833,1003.33 292.167,1003.67 292.5,1004C 287.882,1005.28 283.716,1007.45 280,1010.5C 274.795,1011.55 270.295,1014.39 266.5,1019C 262.688,1020.29 259.688,1022.62 257.5,1026C 255.056,1025.45 252.889,1026.28 251,1028.5C 250.667,1028.17 250.333,1027.83 250,1027.5C 239.123,1035.52 227.623,1042.35 215.5,1048C 213.5,1048.33 211.5,1048.67 209.5,1049C 208.033,1053.15 205.2,1055.65 201,1056.5C 200.667,1056.17 200.333,1055.83 200,1055.5C 198.954,1057.09 197.787,1058.59 196.5,1060C 190.774,1060.39 186.108,1063.06 182.5,1068C 179.024,1070.16 175.357,1071.82 171.5,1073C 166.986,1077.78 161.653,1080.28 155.5,1080.5C 152.808,1085.52 148.808,1087.18 143.5,1085.5C 141.489,1082.99 139.322,1080.66 137,1078.5C 135.509,1072.02 132.509,1066.35 128,1061.5C 126.072,1054.12 123.072,1046.79 119,1039.5C 117.125,1031.24 113.959,1023.58 109.5,1016.5C 106.96,1009.38 104.127,1002.38 101,995.5C 99.8565,988.737 97.5232,982.404 94,976.5C 85.4407,947.156 78.1074,917.489 72,887.5C 68.4412,866.735 64.9412,845.902 61.5,825C 61.7355,824.127 62.0688,823.293 62.5,822.5C 61.6247,812.171 60.6247,801.838 59.5,791.5C 59.5207,788.248 59.854,785.081 60.5,782C 59.7402,780.559 59.0736,779.059 58.5,777.5C 58.1466,765.36 58.8132,753.194 60.5,741C 59.2542,718.923 61.0875,697.089 66,675.5C 66.85,656.067 70.1833,637.067 76,618.5C 76.5206,613.148 77.1872,607.815 78,602.5C 87.1399,573.587 95.4732,544.587 103,515.5C 109.586,502.213 116.253,488.879 123,475.5C 125.879,468.391 128.213,461.058 130,453.5C 137.819,440.563 144.986,427.23 151.5,413.5C 152.76,412.618 153.926,411.618 155,410.5C 156.861,404.083 160.194,398.75 165,394.5C 166.814,390.047 168.814,385.714 171,381.5C 181.198,372.301 189.531,361.634 196,349.5C 199.703,346.133 203.036,342.466 206,338.5C 209.569,331.924 213.569,325.59 218,319.5C 218.813,317.564 219.313,315.564 219.5,313.5C 225.568,313.297 228.901,310.464 229.5,305C 240.404,295.099 251.07,284.766 261.5,274C 262.5,273.667 263.5,273.333 264.5,273C 267.967,270.06 270.634,266.56 272.5,262.5C 274.115,261.846 275.782,261.346 277.5,261C 285.826,251.88 294.826,243.713 304.5,236.5C 316.195,229.637 326.528,221.137 335.5,211C 339.897,208.801 344.231,206.635 348.5,204.5C 348.33,203.178 348.663,202.011 349.5,201C 358.645,196.821 366.978,191.488 374.5,185C 383.361,181.9 391.361,177.233 398.5,171C 400.167,170.667 401.833,170.333 403.5,170C 412.998,164.752 422.331,159.252 431.5,153.5C 436.122,151.675 440.788,150.175 445.5,149C 449.02,147.743 452.02,145.743 454.5,143C 469.069,139.461 482.569,133.628 495,125.5C 503.944,124.155 512.777,121.655 521.5,118C 541.859,113.043 561.859,107.21 581.5,100.5C 582.442,100.608 583.275,100.941 584,101.5C 588.333,100.5 592.667,99.5 597,98.5C 597.333,98.8333 597.667,99.1667 598,99.5C 603.637,98.8395 609.137,97.6728 614.5,96C 634.012,93.8527 653.512,91.3527 673,88.5C 685.29,90.3251 695.957,89.3251 705,85.5C 721.763,85.6357 738.097,85.6357 754,85.5C 768.94,88.2291 784.107,90.3957 799.5,92C 807.167,92.3333 814.833,92.6667 822.5,93C 824.333,94.1667 826.167,95.3333 828,96.5C 828.692,97.4368 828.525,98.1034 827.5,98.5 Z"/></g>
<g><path style="opacity:0.998" fill="#003778" d="M 827.5,98.5 C 827.5,99.1667 827.5,99.8333 827.5,100.5C 729.02,132.469 659.187,196.136 618,291.5C 608.09,316.732 600.923,342.732 596.5,369.5C 491.175,407.993 413.341,477.326 363,577.5C 315.271,679.022 309.771,782.689 346.5,888.5C 347.694,893.582 349.194,898.582 351,903.5C 355.372,914.149 360.205,924.482 365.5,934.5C 366.659,938.151 368.326,941.485 370.5,944.5C 371.117,946.68 372.117,948.68 373.5,950.5C 298.331,994.919 222.998,1039.09 147.5,1083C 146.365,1083.75 145.365,1083.58 144.5,1082.5C 83.7749,970.588 56.6082,850.922 63,723.5C 75.4296,549.378 142.93,400.878 265.5,278C 423.904,129.706 611.238,69.8727 827.5,98.5 Z"/></g>
<g><path style="opacity:0.016" fill="#fefffe" d="M 689.5,190.5 C 689.897,189.475 690.563,189.308 691.5,190C 690.906,190.464 690.239,190.631 689.5,190.5 Z"/></g>
<g><path style="opacity:0.243" fill="#f3f5f8" d="M 827.5,100.5 C 828.573,101.251 828.74,102.251 828,103.5C 826.38,105.241 824.88,107.075 823.5,109C 818.784,108.957 814.451,110.124 810.5,112.5C 806.194,111.791 802.027,112.458 798,114.5C 797.667,114.167 797.333,113.833 797,113.5C 795.924,117.106 793.757,118.106 790.5,116.5C 788.831,117.671 787.331,119.004 786,120.5C 784.452,119.316 782.952,119.483 781.5,121C 782.833,121.667 782.833,122.333 781.5,123C 776.792,126.485 771.458,128.485 765.5,129C 762.763,131.87 759.429,133.87 755.5,135C 753.963,136.11 753.297,137.61 753.5,139.5C 748.654,139.418 745.321,141.585 743.5,146C 738.356,145.894 735.023,148.228 733.5,153C 731.782,153.346 730.115,153.846 728.5,154.5C 727.914,154.291 727.414,153.957 727,153.5C 726.163,155.351 725.329,157.184 724.5,159C 720.456,160.175 716.789,162.008 713.5,164.5C 712.754,165.736 712.421,167.07 712.5,168.5C 706.84,168.995 702.84,171.829 700.5,177C 699.552,177.483 698.552,177.649 697.5,177.5C 697.313,179.564 696.813,181.564 696,183.5C 692.084,186.15 688.417,189.15 685,192.5C 683.627,195.412 682.127,198.246 680.5,201C 678.481,201.45 676.648,202.283 675,203.5C 674.667,203.167 674.333,202.833 674,202.5C 670.646,209.192 666.48,215.359 661.5,221C 661.833,221.333 662.167,221.667 662.5,222C 658.939,224.896 656.106,228.396 654,232.5C 653.667,232.167 653.333,231.833 653,231.5C 652.333,232.833 651.333,233.833 650,234.5C 649.805,236.207 649.805,237.874 650,239.5C 643.627,247.976 637.794,256.809 632.5,266C 630.923,270.263 628.423,274.763 625,279.5C 624.57,285.141 622.57,290.141 619,294.5C 618.667,297.5 618.333,300.5 618,303.5C 613.335,312.982 609.501,322.816 606.5,333C 607.64,336.59 606.806,339.757 604,342.5C 601.586,350.773 601.419,358.94 603.5,367C 601.541,369.136 600.207,371.636 599.5,374.5C 595.197,374.099 590.864,374.599 586.5,376C 584.606,377.101 583.939,378.434 584.5,380C 581.447,380.179 578.447,380.679 575.5,381.5C 571.853,383.719 568.02,385.719 564,387.5C 563.055,387.095 562.388,386.428 562,385.5C 560.509,387.004 558.676,387.837 556.5,388C 555.809,389.067 555.309,390.234 555,391.5C 554.586,391.043 554.086,390.709 553.5,390.5C 552.585,392.98 551.085,393.647 549,392.5C 547.509,394.004 545.676,394.837 543.5,395C 543.167,396 542.833,397 542.5,398C 538.783,399.18 535.116,400.513 531.5,402C 520.047,409.747 508.714,417.581 497.5,425.5C 492.528,428.005 488.028,431.005 484,434.5C 483.667,434.167 483.333,433.833 483,433.5C 481.812,434.563 481.312,435.897 481.5,437.5C 480.127,437.343 478.793,437.51 477.5,438C 477.833,438.333 478.167,438.667 478.5,439C 476.667,440.167 475.167,441.667 474,443.5C 473.667,443.167 473.333,442.833 473,442.5C 468.198,446.251 463.531,450.251 459,454.5C 458.667,455.833 458.333,457.167 458,458.5C 457.667,457.833 457.333,457.167 457,456.5C 456.5,457.667 455.667,458.5 454.5,459C 455.646,461.557 454.646,462.89 451.5,463C 450.874,463.75 450.374,464.584 450,465.5C 449.667,465.167 449.333,464.833 449,464.5C 448.751,465.624 448.251,466.624 447.5,467.5C 445.5,468.167 443.5,468.833 441.5,469.5C 439.426,472.882 437.259,476.215 435,479.5C 432.667,480.833 430.333,482.167 428,483.5C 421.992,494.533 414.326,504.2 405,512.5C 401.269,520.953 396.269,528.62 390,535.5C 386.384,543.258 381.717,550.258 376,556.5C 364.592,580.176 354.092,604.176 344.5,628.5C 342.227,640.43 339.227,652.097 335.5,663.5C 336.391,666.701 335.724,669.701 333.5,672.5C 334.28,677.292 333.28,681.792 330.5,686C 330.441,692.077 330.441,698.243 330.5,704.5C 327.881,712.51 326.214,720.676 325.5,729C 326.308,729.308 326.975,729.808 327.5,730.5C 326.383,731.949 325.716,733.616 325.5,735.5C 327.588,746.335 327.921,757.168 326.5,768C 327.357,768.689 328.023,769.522 328.5,770.5C 327.77,773.109 327.27,775.776 327,778.5C 325.997,776.065 325.497,776.398 325.5,779.5C 325.477,781.067 325.977,782.4 327,783.5C 327.933,811.659 332.266,838.993 340,865.5C 340.889,868.946 342.556,871.946 345,874.5C 345.687,876.568 345.52,878.568 344.5,880.5C 346.055,882.943 346.722,885.61 346.5,888.5C 309.771,782.689 315.271,679.022 363,577.5C 413.341,477.326 491.175,407.993 596.5,369.5C 600.923,342.732 608.09,316.732 618,291.5C 659.187,196.136 729.02,132.469 827.5,100.5 Z"/></g>
<g><path style="opacity:0.161" fill="#fef7f7" d="M 928.5,434.5 C 930.316,436.137 932.316,437.637 934.5,439C 940.359,440.264 946.025,442.097 951.5,444.5C 953.252,449.778 956.918,452.112 962.5,451.5C 962.673,454.179 963.673,456.513 965.5,458.5C 969.571,460.046 972.904,462.546 975.5,466C 977.167,466.333 978.833,466.667 980.5,467C 981.981,469.762 983.647,472.429 985.5,475C 987.345,476.128 989.345,476.628 991.5,476.5C 991.694,482.36 994.694,485.694 1000.5,486.5C 1001.04,489.166 1002.37,491.333 1004.5,493C 1010.63,494.719 1013.46,498.886 1013,505.5C 1017.8,511.122 1021.97,517.122 1025.5,523.5C 943.281,421.683 836.947,379.516 706.5,397C 589.089,422.271 506.923,490.104 460,600.5C 424.588,699.086 431.755,794.419 481.5,886.5C 482.365,887.583 483.365,887.749 484.5,887C 559.963,843.033 635.297,798.866 710.5,754.5C 697.216,729.166 698.716,704.832 715,681.5C 736.031,658.185 761.198,652.352 790.5,664C 802.899,670.399 812.733,679.565 820,691.5C 895.751,647.041 971.585,602.707 1047.5,558.5C 1045.74,554.646 1043.74,550.979 1041.5,547.5C 1043.43,548.763 1045.1,550.43 1046.5,552.5C 1047.43,553.641 1048.26,553.641 1049,552.5C 1049.23,555.095 1049.73,557.595 1050.5,560C 1049.27,561.529 1047.77,562.696 1046,563.5C 1045.67,565.167 1045.33,566.833 1045,568.5C 1041.59,567.883 1038.92,569.216 1037,572.5C 1036.67,571.833 1036.33,571.167 1036,570.5C 1034.43,574.485 1031.76,576.152 1028,575.5C 1026.74,577.303 1025.07,578.636 1023,579.5C 1022.33,578.833 1021.67,578.167 1021,577.5C 1020.05,579.455 1018.71,581.122 1017,582.5C 1015.33,582.5 1013.67,582.5 1012,582.5C 1010.86,586.307 1008.36,588.807 1004.5,590C 1004.83,590.333 1005.17,590.667 1005.5,591C 996.283,594.558 988.117,599.725 981,606.5C 980.667,606.167 980.333,605.833 980,605.5C 969.076,610.985 960.076,616.318 953,621.5C 952.667,621.167 952.333,620.833 952,620.5C 950.342,622.323 948.509,623.99 946.5,625.5C 947.648,627.149 948.981,628.649 950.5,630C 949.315,631.353 947.981,632.52 946.5,633.5C 947.668,634.906 947.335,636.072 945.5,637C 944.128,637.402 942.795,637.902 941.5,638.5C 939.253,637.626 936.92,637.292 934.5,637.5C 934.649,632.109 933.149,631.442 930,635.5C 929.667,635.167 929.333,634.833 929,634.5C 926.118,635.358 923.618,636.858 921.5,639C 922.5,639.333 923.5,639.667 924.5,640C 921.964,640.339 919.464,640.839 917,641.5C 910.549,645.495 904.049,649.162 897.5,652.5C 894.224,655.016 890.558,656.683 886.5,657.5C 886.5,658.5 886.5,659.5 886.5,660.5C 882.938,660.965 879.605,662.132 876.5,664C 875.167,664.667 875.167,665.333 876.5,666C 862.672,672.534 849.005,680.034 835.5,688.5C 834.52,689.981 833.353,691.315 832,692.5C 831.586,692.043 831.086,691.709 830.5,691.5C 826.33,693.352 821.996,693.852 817.5,693C 814.823,688.307 811.823,684.641 808.5,682C 808.833,681.667 809.167,681.333 809.5,681C 808,679.167 806.5,677.333 805,675.5C 802.557,676.285 800.057,676.119 797.5,675C 794.975,671.814 792.475,668.647 790,665.5C 780.184,661.301 770.018,659.635 759.5,660.5C 756.626,661.736 753.793,663.07 751,664.5C 748.924,663.388 746.757,662.888 744.5,663C 742.445,665.055 740.112,666.721 737.5,668C 736.833,669.333 736.167,670.667 735.5,672C 730.559,672.966 726.892,675.632 724.5,680C 722.598,680.199 721.098,681.033 720,682.5C 719.676,680.431 718.842,680.098 717.5,681.5C 714.41,685.359 711.576,689.359 709,693.5C 706.444,702.518 704.277,711.685 702.5,721C 702.959,725.172 703.459,729.338 704,733.5C 705.448,737.455 706.782,741.455 708,745.5C 709.362,748.236 711.196,750.569 713.5,752.5C 711.474,757.697 707.808,761.53 702.5,764C 700.833,766 699.167,768 697.5,770C 692.086,771.015 687.42,773.349 683.5,777C 673.895,780.434 665.895,785.434 659.5,792C 655.036,794.177 650.702,795.677 646.5,796.5C 646.5,797.5 646.5,798.5 646.5,799.5C 645.127,799.343 643.793,799.51 642.5,800C 636.522,804.659 630.189,808.826 623.5,812.5C 619.267,814.451 614.934,816.117 610.5,817.5C 608.639,818.528 607.305,820.028 606.5,822C 601.526,824.286 596.526,826.62 591.5,829C 590.207,829.49 588.873,829.657 587.5,829.5C 587.5,830.5 587.5,831.5 587.5,832.5C 584.24,834.714 580.573,836.38 576.5,837.5C 573.408,836.584 570.741,837.417 568.5,840C 568.833,840.333 569.167,840.667 569.5,841C 566.597,841.569 564.597,843.235 563.5,846C 561.51,847.751 559.177,848.751 556.5,849C 554.963,850.11 554.297,851.61 554.5,853.5C 549.241,853.304 544.908,855.137 541.5,859C 532.87,859.666 525.536,862.999 519.5,869C 520.167,869.333 520.833,869.667 521.5,870C 520.062,870.219 518.729,870.719 517.5,871.5C 516.547,873.455 515.213,875.122 513.5,876.5C 510.557,877.534 507.89,879.034 505.5,881C 501.469,880.158 499.136,881.991 498.5,886.5C 497.914,886.291 497.414,885.957 497,885.5C 492.023,885.827 487.356,887.16 483,889.5C 481.527,889.097 480.194,888.43 479,887.5C 476.715,884.228 475.048,880.228 474,875.5C 473.333,874.833 472.667,874.167 472,873.5C 471,874.833 470,874.833 469,873.5C 468.056,869.391 467.222,865.391 466.5,861.5C 466.5,860.167 465.833,859.5 464.5,859.5C 462.888,857.702 461.388,855.702 460,853.5C 459.28,851.888 459.446,850.388 460.5,849C 457.274,849.936 456.274,848.769 457.5,845.5C 456.877,843.289 455.877,841.289 454.5,839.5C 455.304,838.059 455.971,836.559 456.5,835C 444.148,800.904 437.148,766.237 435.5,731C 434.372,724.41 433.705,717.91 433.5,711.5C 434.618,708.256 435.451,704.923 436,701.5C 437.514,676.603 441.847,652.27 449,628.5C 449.769,624.064 450.103,619.73 450,615.5C 450.667,613.5 452,612.167 454,611.5C 457.879,602.185 461.546,592.852 465,583.5C 469.093,575.647 472.926,567.647 476.5,559.5C 487.635,541.381 499.468,523.715 512,506.5C 512.761,503.947 513.594,501.447 514.5,499C 516.952,498.71 519.285,498.044 521.5,497C 525.849,490.993 530.515,485.326 535.5,480C 548.746,470.422 561.08,459.756 572.5,448C 588.563,438.565 604.563,429.232 620.5,420C 624.878,418.354 629.378,417.187 634,416.5C 644.758,412.2 655.258,407.534 665.5,402.5C 667.927,403.79 669.927,403.457 671.5,401.5C 672.167,401.833 672.833,402.167 673.5,402.5C 705.866,394.076 738.7,389.41 772,388.5C 773.895,388.385 775.562,387.718 777,386.5C 781.604,387.59 786.104,389.09 790.5,391C 829.907,394.724 867.407,404.89 903,421.5C 905.795,422.185 908.628,422.685 911.5,423C 916.233,428.355 921.9,432.189 928.5,434.5 Z"/></g>
<g><path style="opacity:0.998" fill="#e20a16" d="M 1025.5,523.5 C 1030.01,531.188 1035.01,538.522 1040.5,545.5C 1041.34,545.842 1041.67,546.508 1041.5,547.5C 1043.74,550.979 1045.74,554.646 1047.5,558.5C 971.585,602.707 895.751,647.041 820,691.5C 812.733,679.565 802.899,670.399 790.5,664C 761.198,652.352 736.031,658.185 715,681.5C 698.716,704.832 697.216,729.166 710.5,754.5C 635.297,798.866 559.963,843.033 484.5,887C 483.365,887.749 482.365,887.583 481.5,886.5C 431.755,794.419 424.588,699.086 460,600.5C 506.923,490.104 589.089,422.271 706.5,397C 836.947,379.516 943.281,421.683 1025.5,523.5 Z"/></g>
<g><path style="opacity:0.016" fill="#fefffe" d="M 928.5,434.5 C 928.897,433.475 929.563,433.308 930.5,434C 929.906,434.464 929.239,434.631 928.5,434.5 Z"/></g>
<g><path style="opacity:0.133" fill="#feeff0" d="M 1025.5,523.5 C 1028.45,525.621 1030.95,528.287 1033,531.5C 1036.3,535.778 1038.8,540.444 1040.5,545.5C 1035.01,538.522 1030.01,531.188 1025.5,523.5 Z"/></g>
<g><path style="opacity:0.997" fill="#003778" d="M 1096.5,652.5 C 1097.36,657.207 1099.03,661.541 1101.5,665.5C 1108.93,686.135 1115.93,706.801 1122.5,727.5C 1125.08,741.465 1128.41,755.132 1132.5,768.5C 1132.86,773.752 1133.86,778.752 1135.5,783.5C 1138.07,801.649 1140.74,819.649 1143.5,837.5C 1148.73,896.724 1146.9,955.724 1138,1014.5C 1134.3,1032.48 1130.8,1050.48 1127.5,1068.5C 1125.21,1074.56 1123.55,1080.9 1122.5,1087.5C 1122.77,1089.1 1122.43,1090.43 1121.5,1091.5C 1108.95,1132.15 1093.61,1171.81 1075.5,1210.5C 1061.27,1236.62 1046.27,1262.29 1030.5,1287.5C 905.791,1463.33 735.458,1560.33 519.5,1578.5C 519.167,1578.5 518.833,1578.5 518.5,1578.5C 495.5,1578.5 472.5,1578.5 449.5,1578.5C 449.167,1578.5 448.833,1578.5 448.5,1578.5C 430.944,1577.05 413.278,1575.21 395.5,1573C 389.963,1572.58 384.63,1571.41 379.5,1569.5C 476.682,1538.78 546.182,1476.78 588,1383.5C 591.88,1373.52 595.547,1363.52 599,1353.5C 647.9,1345.27 675.9,1316.6 683,1267.5C 790.504,1202.25 856.171,1107.59 880,983.5C 894.627,890.879 879.96,803.213 836,720.5C 835.251,719.365 835.417,718.365 836.5,717.5C 911.918,673.374 987.418,629.374 1063,585.5C 1075.04,607.508 1086.21,629.841 1096.5,652.5 Z"/></g>
<g><path style="opacity:0.016" fill="#fefffe" d="M 926.5,636.5 C 927.833,637.167 927.833,637.167 926.5,636.5 Z"/></g>
<g><path style="opacity:0.016" fill="#fefffe" d="M 897.5,652.5 C 898.552,652.351 899.552,652.517 900.5,653C 899.251,653.74 898.251,653.573 897.5,652.5 Z"/></g>
<g><path style="opacity:0.074" fill="#edf0f5" d="M 1096.5,652.5 C 1099.49,656.211 1101.15,660.544 1101.5,665.5C 1099.03,661.541 1097.36,657.207 1096.5,652.5 Z"/></g>
<g><path style="opacity:0.128" fill="#f7f8fa" d="M 1101.5,665.5 C 1102.97,666.347 1103.8,667.68 1104,669.5C 1104.33,669.167 1104.67,668.833 1105,668.5C 1107.53,670.965 1109.03,673.965 1109.5,677.5C 1111.52,678.445 1111.85,679.945 1110.5,682C 1112.65,684.367 1113.98,687.2 1114.5,690.5C 1112.92,695.272 1114.09,699.272 1118,702.5C 1118.33,705.5 1118.67,708.5 1119,711.5C 1122.34,716.459 1123.5,721.793 1122.5,727.5C 1115.93,706.801 1108.93,686.135 1101.5,665.5 Z"/></g>
<g><path style="opacity:0.016" fill="#fefffe" d="M 805.5,678.5 C 806.833,679.167 806.833,679.167 805.5,678.5 Z"/></g>
<g><path style="opacity:0.173" fill="#e3e8ef" d="M 1122.5,727.5 C 1123.99,730.72 1125.49,734.054 1127,737.5C 1129.05,747.791 1130.88,758.124 1132.5,768.5C 1128.41,755.132 1125.08,741.465 1122.5,727.5 Z"/></g>
<g><path style="opacity:0.016" fill="#fefffe" d="M 326.5,733.5 C 327.598,734.601 327.765,735.934 327,737.5C 326.51,736.207 326.343,734.873 326.5,733.5 Z"/></g>
<g><path style="opacity:0.253" fill="#f9fafb" d="M 1096.5,652.5 C 1086.21,629.841 1075.04,607.508 1063,585.5C 987.418,629.374 911.918,673.374 836.5,717.5C 835.417,718.365 835.251,719.365 836,720.5C 879.96,803.213 894.627,890.879 880,983.5C 856.171,1107.59 790.504,1202.25 683,1267.5C 675.9,1316.6 647.9,1345.27 599,1353.5C 595.547,1363.52 591.88,1373.52 588,1383.5C 546.182,1476.78 476.682,1538.78 379.5,1569.5C 384.63,1571.41 389.963,1572.58 395.5,1573C 413.278,1575.21 430.944,1577.05 448.5,1578.5C 434.817,1578.64 421.15,1578.64 407.5,1578.5C 405.734,1577.91 404.067,1577.08 402.5,1576C 392.418,1576.28 383.252,1573.78 375,1568.5C 374.667,1569.17 374.333,1569.83 374,1570.5C 373.333,1569.17 373.333,1567.83 374,1566.5C 378.155,1562.68 382.988,1560.18 388.5,1559C 389.167,1558.33 389.833,1557.67 390.5,1557C 394.844,1556.04 399.177,1555.37 403.5,1555C 406.592,1551.26 410.592,1549.6 415.5,1550C 418.702,1546.31 422.536,1544.48 427,1544.5C 430.202,1542.43 433.702,1540.93 437.5,1540C 446.217,1534.46 455.217,1529.13 464.5,1524C 471.01,1517.91 478.343,1513.08 486.5,1509.5C 488.711,1506.24 491.045,1503.08 493.5,1500C 496.583,1498.86 499.583,1497.53 502.5,1496C 504.246,1492.58 506.413,1489.41 509,1486.5C 514.914,1484.09 518.414,1479.76 519.5,1473.5C 524.481,1472.02 527.647,1468.68 529,1463.5C 531.674,1459.66 534.841,1456.33 538.5,1453.5C 539.386,1452.68 539.719,1451.68 539.5,1450.5C 540.552,1450.65 541.552,1450.48 542.5,1450C 546.953,1445.67 550.12,1440.5 552,1434.5C 556.379,1430.72 560.046,1426.39 563,1421.5C 568.286,1410.93 574.286,1400.93 581,1391.5C 582.025,1386.73 583.358,1382.07 585,1377.5C 588.573,1368.51 592.573,1359.51 597,1350.5C 597.333,1350.83 597.667,1351.17 598,1351.5C 602.293,1350.08 606.126,1347.91 609.5,1345C 613.465,1343.87 617.465,1342.87 621.5,1342C 629.987,1337.15 638.654,1332.81 647.5,1329C 651.81,1322.36 656.476,1316.03 661.5,1310C 661.167,1309.67 660.833,1309.33 660.5,1309C 667.037,1302.94 671.704,1295.61 674.5,1287C 676.151,1278.53 678.818,1270.03 682.5,1261.5C 685.609,1259.09 688.609,1256.59 691.5,1254C 695.917,1253.87 699.584,1252.2 702.5,1249C 706.228,1247.9 709.228,1245.9 711.5,1243C 715.201,1241.33 718.868,1239.66 722.5,1238C 727.984,1231.58 733.984,1225.75 740.5,1220.5C 743.005,1218.75 745.671,1217.25 748.5,1216C 749.191,1214.93 749.691,1213.77 750,1212.5C 753.577,1209.85 756.744,1206.85 759.5,1203.5C 760.386,1202.68 760.719,1201.68 760.5,1200.5C 761.552,1200.65 762.552,1200.48 763.5,1200C 764.711,1195.96 767.378,1193.46 771.5,1192.5C 775.765,1184.41 781.599,1177.74 789,1172.5C 792.63,1168.2 796.296,1163.86 800,1159.5C 803.353,1152.86 807.353,1146.86 812,1141.5C 813.197,1138.91 814.197,1136.24 815,1133.5C 818.889,1127.67 823.222,1122.34 828,1117.5C 830.893,1109.88 834.727,1102.72 839.5,1096C 838.465,1094.49 838.632,1092.99 840,1091.5C 840.333,1091.83 840.667,1092.17 841,1092.5C 842.106,1087.74 844.44,1083.74 848,1080.5C 852.559,1071.48 855.892,1062.15 858,1052.5C 861.228,1040.48 865.061,1028.65 869.5,1017C 868.978,1016.44 868.645,1015.77 868.5,1015C 870.903,1007.79 872.903,1000.46 874.5,993C 874.355,991.774 874.022,990.607 873.5,989.5C 877.745,976.537 879.745,963.204 879.5,949.5C 877.979,935.617 878.312,921.784 880.5,908C 878.303,894.424 877.97,880.757 879.5,867C 878.946,864.176 878.446,861.343 878,858.5C 877.346,859.696 876.846,859.696 876.5,858.5C 878.195,855.33 878.695,851.996 878,848.5C 876.12,838.441 874.12,828.441 872,818.5C 869.044,811.338 866.711,804.004 865,796.5C 862.925,790.724 860.425,785.89 857.5,782C 857.643,777.412 856.309,773.079 853.5,769C 854.517,767.951 854.684,766.784 854,765.5C 850.69,763.733 849.857,761.233 851.5,758C 849.12,751.062 846.287,744.228 843,737.5C 840.672,736.514 838.672,734.514 837,731.5C 836.578,727.991 835.578,724.657 834,721.5C 833.635,713.732 837.135,708.566 844.5,706C 845.167,705 845.833,704 846.5,703C 858.891,695.908 871.558,689.408 884.5,683.5C 892.515,676.834 900.849,670.667 909.5,665C 912.405,663.714 915.405,662.714 918.5,662C 926.145,656.362 933.812,650.695 941.5,645C 947.459,642.021 953.459,639.021 959.5,636C 965.374,632.235 971.041,628.235 976.5,624C 983.304,620.874 990.304,618.207 997.5,616C 1000.42,612.775 1004.08,610.775 1008.5,610C 1011.5,608.167 1014.5,606.333 1017.5,604.5C 1018.39,603.675 1018.72,602.675 1018.5,601.5C 1025.06,600.201 1030.73,597.201 1035.5,592.5C 1039.97,591.431 1043.64,589.097 1046.5,585.5C 1050.73,585.219 1054.39,583.719 1057.5,581C 1062.85,579.522 1067.19,580.856 1070.5,585C 1070.02,586.763 1069.36,588.43 1068.5,590C 1069.55,590.492 1070.55,590.326 1071.5,589.5C 1072.31,589.808 1072.97,590.308 1073.5,591C 1071.42,592.884 1071.09,595.051 1072.5,597.5C 1075.16,600.147 1077.32,603.147 1079,606.5C 1080.25,605.228 1081.41,604.895 1082.5,605.5C 1081.81,607.444 1081.31,609.444 1081,611.5C 1080.11,610.112 1079.61,610.278 1079.5,612C 1080.89,615.391 1083.05,618.225 1086,620.5C 1086.88,623.789 1087.55,627.123 1088,630.5C 1088.33,629.833 1088.67,629.167 1089,628.5C 1088.78,632.248 1090.11,635.248 1093,637.5C 1093.12,642.825 1094.28,647.825 1096.5,652.5 Z"/></g>
<g><path style="opacity:0.144" fill="#eceff4" d="M 1132.5,768.5 C 1134.66,773.126 1135.66,778.126 1135.5,783.5C 1133.86,778.752 1132.86,773.752 1132.5,768.5 Z"/></g>
<g><path style="opacity:0.199" fill="#fef8f8" d="M 736.5,795.5 C 736.491,797.308 736.991,798.975 738,800.5C 740,802.167 742,803.833 744,805.5C 745.167,809.167 746.333,812.833 747.5,816.5C 746.787,819.096 746.787,821.763 747.5,824.5C 741.319,811.136 734.819,797.802 728,784.5C 726.867,782.789 725.367,782.289 723.5,783C 650.167,825.667 576.833,868.333 503.5,911C 501.415,912.041 499.748,913.541 498.5,915.5C 506.126,929.94 508.626,945.273 506,961.5C 504.066,970.025 500.566,977.691 495.5,984.5C 497.733,978.419 500.233,972.419 503,966.5C 504.835,954.51 504.835,942.51 503,930.5C 501.084,924.883 498.918,919.383 496.5,914C 496.869,910.61 498.535,907.943 501.5,906C 505.759,904.705 510.092,903.705 514.5,903C 518.847,898.655 523.514,894.655 528.5,891C 536.568,888.246 543.901,884.246 550.5,879C 554.794,878.181 558.794,876.681 562.5,874.5C 566.954,870.388 571.288,866.221 575.5,862C 589.871,856.826 602.871,849.326 614.5,839.5C 620.011,836.61 625.344,833.443 630.5,830C 642.689,825.515 653.689,818.848 663.5,810C 670.897,808.613 677.897,806.279 684.5,803C 687.176,800.746 689.51,798.246 691.5,795.5C 694.698,794.627 697.364,792.96 699.5,790.5C 701.224,791.661 702.89,791.495 704.5,790C 707.952,787.171 711.286,784.171 714.5,781C 719.202,780.172 723.869,780.338 728.5,781.5C 730.554,783.194 732.888,784.361 735.5,785C 734.782,787.461 734.115,789.961 733.5,792.5C 733.879,794.213 734.879,795.213 736.5,795.5 Z"/></g>
<g><path style="opacity:0.998" fill="#e20b16" d="M 747.5,824.5 C 747.402,826.553 748.069,828.22 749.5,829.5C 750.404,830.209 750.737,831.209 750.5,832.5C 750.733,835.542 751.733,838.208 753.5,840.5C 753.595,842.786 754.262,844.786 755.5,846.5C 755.899,850.116 756.899,853.45 758.5,856.5C 758.5,856.833 758.5,857.167 758.5,857.5C 759.935,863.993 761.602,870.327 763.5,876.5C 772.77,924.501 772.77,972.501 763.5,1020.5C 760.917,1026.83 759.251,1033.5 758.5,1040.5C 751.225,1062.31 742.558,1083.64 732.5,1104.5C 726.918,1113.33 721.585,1122.33 716.5,1131.5C 710.787,1138.55 705.454,1145.88 700.5,1153.5C 698.11,1154.89 696.443,1156.89 695.5,1159.5C 684.215,1172.79 671.881,1185.12 658.5,1196.5C 627.932,1166.72 592.598,1159.55 552.5,1175C 540.661,1181.01 530.161,1188.84 521,1198.5C 520.536,1199.09 520.369,1199.76 520.5,1200.5C 520.5,1201.17 520.167,1201.5 519.5,1201.5C 518.094,1201.97 517.427,1202.97 517.5,1204.5C 515.738,1205.26 514.738,1206.6 514.5,1208.5C 513.094,1208.97 512.427,1209.97 512.5,1211.5C 505.374,1222.03 500.874,1233.69 499,1246.5C 498.198,1254.55 498.365,1262.55 499.5,1270.5C 499.023,1271.48 498.357,1272.31 497.5,1273C 435.083,1282.97 374.75,1275.81 316.5,1251.5C 272.346,1231.48 233.846,1203.48 201,1167.5C 196.623,1161.39 191.789,1155.72 186.5,1150.5C 186.262,1148.6 185.262,1147.26 183.5,1146.5C 183.573,1144.97 182.906,1143.97 181.5,1143.5C 180.974,1141.77 179.974,1140.44 178.5,1139.5C 178.068,1138.29 177.401,1137.29 176.5,1136.5C 175.833,1136.5 175.5,1136.17 175.5,1135.5C 170.899,1127.14 165.899,1118.97 160.5,1111C 236.336,1066.58 312.336,1022.41 388.5,978.5C 403.166,1001.5 424.166,1012.33 451.5,1011C 469.12,1008.7 483.12,1000.53 493.5,986.5C 494.5,986.167 495.167,985.5 495.5,984.5C 500.566,977.691 504.066,970.025 506,961.5C 508.626,945.273 506.126,929.94 498.5,915.5C 499.748,913.541 501.415,912.041 503.5,911C 576.833,868.333 650.167,825.667 723.5,783C 725.367,782.289 726.867,782.789 728,784.5C 734.819,797.802 741.319,811.136 747.5,824.5 Z"/></g>
<g><path style="opacity:0.139" fill="#f4f6f9" d="M 1135.5,783.5 C 1136.88,786.353 1138.04,789.353 1139,792.5C 1139.28,798.376 1140.28,804.043 1142,809.5C 1142.74,818.824 1143.24,828.157 1143.5,837.5C 1140.74,819.649 1138.07,801.649 1135.5,783.5 Z"/></g>
<g><path style="opacity:0.016" fill="#fefffe" d="M 56.5,786.5 C 57.8333,787.167 57.8333,787.167 56.5,786.5 Z"/></g>
<g><path style="opacity:0.016" fill="#fefffe" d="M 736.5,795.5 C 736.897,794.475 737.563,794.308 738.5,795C 737.906,795.464 737.239,795.631 736.5,795.5 Z"/></g>
<g><path style="opacity:0.016" fill="#fefffe" d="M 641.5,801.5 C 642.833,802.167 642.833,802.167 641.5,801.5 Z"/></g>
<g><path style="opacity:0.098" fill="#fef4f4" d="M 747.5,824.5 C 749.213,825.635 749.88,827.302 749.5,829.5C 748.069,828.22 747.402,826.553 747.5,824.5 Z"/></g>
<g><path style="opacity:0.122" fill="#feefef" d="M 750.5,832.5 C 752.397,834.698 753.397,837.364 753.5,840.5C 751.733,838.208 750.733,835.542 750.5,832.5 Z"/></g>
<g><path style="opacity:0.22" fill="#f5f7f9" d="M 1143.5,837.5 C 1144.22,837.918 1144.72,838.584 1145,839.5C 1145,847.816 1146.5,855.816 1149.5,863.5C 1148.72,864.949 1148.05,866.449 1147.5,868C 1148.48,877.711 1149.48,887.378 1150.5,897C 1150.49,905.305 1150.49,913.639 1150.5,922C 1149.32,929.971 1148.32,937.971 1147.5,946C 1150.08,950.936 1150.08,955.936 1147.5,961C 1147.77,962.514 1148.1,964.014 1148.5,965.5C 1147.29,970.036 1145.95,974.536 1144.5,979C 1145.17,980 1145.83,981 1146.5,982C 1142.09,995.723 1139.59,1009.89 1139,1024.5C 1136.45,1029.76 1134.95,1035.43 1134.5,1041.5C 1137.09,1044.01 1136.59,1047.01 1133,1050.5C 1131.51,1056.13 1130.18,1061.8 1129,1067.5C 1128.62,1068.06 1128.12,1068.39 1127.5,1068.5C 1130.8,1050.48 1134.3,1032.48 1138,1014.5C 1146.9,955.724 1148.73,896.724 1143.5,837.5 Z"/></g>
<g><path style="opacity:0.123" fill="#fefefe" d="M 753.5,840.5 C 755.074,842.102 755.741,844.102 755.5,846.5C 754.262,844.786 753.595,842.786 753.5,840.5 Z"/></g>
<g><path style="opacity:0.113" fill="#fef9f9" d="M 755.5,846.5 C 756.117,846.611 756.617,846.944 757,847.5C 757.696,850.478 758.196,853.478 758.5,856.5C 756.899,853.45 755.899,850.116 755.5,846.5 Z"/></g>
<g><path style="opacity:0.016" fill="#fefffe" d="M 1146.5,849.5 C 1147.83,850.167 1147.83,850.167 1146.5,849.5 Z"/></g>
<g><path style="opacity:0.017" fill="#fefffe" d="M 464.5,859.5 C 465.833,859.5 466.5,860.167 466.5,861.5C 465.399,862.598 464.066,862.765 462.5,862C 463.066,861.005 463.733,860.172 464.5,859.5 Z"/></g>
<g><path style="opacity:0.128" fill="#fef6f6" d="M 758.5,857.5 C 761.79,863.229 763.456,869.563 763.5,876.5C 761.602,870.327 759.935,863.993 758.5,857.5 Z"/></g>
<g><path style="opacity:0.142" fill="#fef3f3" d="M 763.5,876.5 C 765.963,883.675 768.13,891.008 770,898.5C 772.121,925.342 773.288,952.175 773.5,979C 772.683,980.49 771.85,981.99 771,983.5C 770.667,988.167 770.333,992.833 770,997.5C 768.267,1005.36 766.101,1013.02 763.5,1020.5C 772.77,972.501 772.77,924.501 763.5,876.5 Z"/></g>
<g><path style="opacity:0.016" fill="#fefffe" d="M 486.5,888.5 C 487.833,889.167 487.833,889.167 486.5,888.5 Z"/></g>
<g><path style="opacity:0.154" fill="#f1f4f7" d="M 346.5,888.5 C 348.962,893.64 351.128,898.974 353,904.5C 355.413,910.332 358.579,915.665 362.5,920.5C 363.69,922.359 363.69,924.192 362.5,926C 364.191,928.571 365.191,931.404 365.5,934.5C 360.205,924.482 355.372,914.149 351,903.5C 349.194,898.582 347.694,893.582 346.5,888.5 Z"/></g>
<g><path style="opacity:0.016" fill="#fefffe" d="M 365.5,927.5 C 366.833,928.167 366.833,928.167 365.5,927.5 Z"/></g>
<g><path style="opacity:0.097" fill="#e5eaf1" d="M 365.5,934.5 C 368.659,936.91 370.325,940.243 370.5,944.5C 368.326,941.485 366.659,938.151 365.5,934.5 Z"/></g>
<g><path style="opacity:0.016" fill="#fefffe" d="M 1149.5,972.5 C 1150.83,973.167 1150.83,973.167 1149.5,972.5 Z"/></g>
<g><path style="opacity:0.166" fill="#fef8f8" d="M 493.5,986.5 C 483.12,1000.53 469.12,1008.7 451.5,1011C 424.166,1012.33 403.166,1001.5 388.5,978.5C 312.336,1022.41 236.336,1066.58 160.5,1111C 165.899,1118.97 170.899,1127.14 175.5,1135.5C 172.561,1133.01 170.061,1130.01 168,1126.5C 167.282,1127.45 166.449,1127.62 165.5,1127C 162.556,1124.28 160.223,1121.11 158.5,1117.5C 158.977,1116.52 159.643,1115.69 160.5,1115C 158.294,1112.79 157.96,1110.29 159.5,1107.5C 167.133,1103.86 173.799,1099.03 179.5,1093C 191.246,1089.53 201.08,1083.36 209,1074.5C 210.131,1075.6 210.965,1075.27 211.5,1073.5C 215.941,1072.75 220.275,1071.58 224.5,1070C 227.226,1068.08 229.226,1065.58 230.5,1062.5C 240.596,1057.31 250.93,1052.81 261.5,1049C 267.002,1045.41 272.669,1042.08 278.5,1039C 284.551,1031.81 292.218,1027.47 301.5,1026C 308.858,1021.65 316.191,1017.31 323.5,1013C 327.191,1008.97 331.191,1005.31 335.5,1002C 339.313,1001.85 342.479,1000.35 345,997.5C 346.813,998.609 347.646,997.942 347.5,995.5C 359.283,993.515 368.949,988.015 376.5,979C 381.629,977.623 386.796,976.456 392,975.5C 393.5,975.833 395,976.167 396.5,976.5C 395.511,979.249 396.511,981.249 399.5,982.5C 400.488,985.45 401.321,988.45 402,991.5C 402.333,991.167 402.667,990.833 403,990.5C 404.734,991.249 406.567,991.749 408.5,992C 410.293,997.233 413.96,999.4 419.5,998.5C 420.485,1002.33 422.819,1005.16 426.5,1007C 438.83,1008.97 451.163,1008.97 463.5,1007C 474.545,1002.6 483.879,995.938 491.5,987C 492.094,986.536 492.761,986.369 493.5,986.5 Z"/></g>
<g><path style="opacity:0.016" fill="#fefffe" d="M 341.5,976.5 C 342.833,977.167 342.833,977.167 341.5,976.5 Z"/></g>
<g><path style="opacity:0.056" fill="#fefffe" d="M 495.5,984.5 C 495.167,985.5 494.5,986.167 493.5,986.5C 493.5,985.167 494.167,984.5 495.5,984.5 Z"/></g>
<g><path style="opacity:0.017" fill="#fefffe" d="M 1145.5,991.5 C 1147.34,991.639 1147.67,992.306 1146.5,993.5C 1145.7,993.043 1145.37,992.376 1145.5,991.5 Z"/></g>
<g><path style="opacity:0.107" fill="#fee5e5" d="M 763.5,1020.5 C 763.34,1027.66 761.673,1034.33 758.5,1040.5C 759.251,1033.5 760.917,1026.83 763.5,1020.5 Z"/></g>
<g><path style="opacity:0.016" fill="#fefffe" d="M 240.5,1034.5 C 241.833,1035.17 241.833,1035.17 240.5,1034.5 Z"/></g>
<g><path style="opacity:0.016" fill="#fefffe" d="M 122.5,1050.5 C 123.833,1051.17 123.833,1051.17 122.5,1050.5 Z"/></g>
<g><path style="opacity:0.117" fill="#ecf0f5" d="M 1127.5,1068.5 C 1127.63,1075.48 1125.96,1081.81 1122.5,1087.5C 1123.55,1080.9 1125.21,1074.56 1127.5,1068.5 Z"/></g>
<g><path style="opacity:0.137" fill="#feeeee" d="M 758.5,1040.5 C 758.453,1043.57 757.953,1046.57 757,1049.5C 753.481,1059.01 749.981,1068.51 746.5,1078C 746.57,1078.76 746.903,1079.26 747.5,1079.5C 747.082,1082.44 745.582,1084.77 743,1086.5C 740.475,1091.08 738.141,1095.75 736,1100.5C 735.051,1102.09 733.885,1103.43 732.5,1104.5C 742.558,1083.64 751.225,1062.31 758.5,1040.5 Z"/></g>
<g><path style="opacity:0.016" fill="#fefffe" d="M 747.5,1078.5 C 748.833,1079.17 748.833,1079.17 747.5,1078.5 Z"/></g>
<g><path style="opacity:0.138" fill="#fef6f6" d="M 732.5,1104.5 C 730.976,1108.91 728.976,1113.08 726.5,1117C 727.574,1117.74 728.241,1118.74 728.5,1120C 727.266,1122.68 725.6,1124.84 723.5,1126.5C 722.833,1125.17 722.167,1125.17 721.5,1126.5C 720.145,1128.52 718.479,1130.19 716.5,1131.5C 721.585,1122.33 726.918,1113.33 732.5,1104.5 Z"/></g>
<g><path style="opacity:0.174" fill="#f0f3f7" d="M 1121.5,1091.5 C 1121.85,1095.1 1121.18,1098.43 1119.5,1101.5C 1119.76,1102.69 1120.09,1103.86 1120.5,1105C 1118.28,1107.94 1116.45,1111.1 1115,1114.5C 1113.67,1121.17 1112.33,1127.83 1111,1134.5C 1105.9,1145.25 1101.57,1156.25 1098,1167.5C 1096.59,1169.19 1095.43,1171.02 1094.5,1173C 1097.12,1174.97 1096.95,1176.81 1094,1178.5C 1093.33,1177.17 1092.67,1177.17 1092,1178.5C 1091.59,1181.23 1090.92,1183.9 1090,1186.5C 1087.41,1190.77 1085.24,1195.27 1083.5,1200C 1080.74,1203.47 1078.08,1206.97 1075.5,1210.5C 1093.61,1171.81 1108.95,1132.15 1121.5,1091.5 Z"/></g>
<g><path style="opacity:0.017" fill="#fefffe" d="M 721.5,1126.5 C 722.167,1126.5 722.833,1126.5 723.5,1126.5C 722.833,1130.5 722.167,1130.5 721.5,1126.5 Z"/></g>
<g><path style="opacity:0.099" fill="#fffefe" d="M 176.5,1136.5 C 177.401,1137.29 178.068,1138.29 178.5,1139.5C 176.952,1139.18 176.285,1138.18 176.5,1136.5 Z"/></g>
<g><path style="opacity:0.099" fill="#fef5f5" d="M 716.5,1131.5 C 714.472,1134.9 712.972,1138.56 712,1142.5C 711.667,1142.17 711.333,1141.83 711,1141.5C 710.667,1144.83 710.333,1148.17 710,1151.5C 707.816,1150.89 705.816,1151.56 704,1153.5C 703.667,1152.83 703.333,1152.17 703,1151.5C 702.583,1152.76 701.75,1153.42 700.5,1153.5C 705.454,1145.88 710.787,1138.55 716.5,1131.5 Z"/></g>
<g><path style="opacity:0.086" fill="#fef3f3" d="M 178.5,1139.5 C 179.974,1140.44 180.974,1141.77 181.5,1143.5C 179.554,1142.97 178.554,1141.63 178.5,1139.5 Z"/></g>
<g><path style="opacity:0.063" fill="#fee2e2" d="M 181.5,1143.5 C 182.906,1143.97 183.573,1144.97 183.5,1146.5C 181.952,1146.18 181.285,1145.18 181.5,1143.5 Z"/></g>
<g><path style="opacity:0.09" fill="#ffefef" d="M 183.5,1146.5 C 185.262,1147.26 186.262,1148.6 186.5,1150.5C 184.738,1149.74 183.738,1148.4 183.5,1146.5 Z"/></g>
<g><path style="opacity:0.101" fill="#ffeded" d="M 700.5,1153.5 C 699.527,1156.13 697.86,1158.13 695.5,1159.5C 696.443,1156.89 698.11,1154.89 700.5,1153.5 Z"/></g>
<g><path style="opacity:0.166" fill="#fef6f6" d="M 695.5,1159.5 C 693.01,1163.81 690.51,1168.14 688,1172.5C 687.506,1174.13 687.34,1175.8 687.5,1177.5C 684.575,1177.46 681.909,1178.29 679.5,1180C 677.114,1184 674.947,1188.17 673,1192.5C 671.887,1191.29 670.72,1191.29 669.5,1192.5C 668.756,1193.99 668.09,1195.49 667.5,1197C 663.527,1198 659.527,1198.33 655.5,1198C 653.42,1194.27 650.753,1190.93 647.5,1188C 639.232,1182.02 630.565,1177.52 621.5,1174.5C 618.591,1176.73 615.758,1176.4 613,1173.5C 612.667,1173.83 612.333,1174.17 612,1174.5C 608.579,1172.04 604.745,1170.54 600.5,1170C 585.911,1168.71 571.577,1170.37 557.5,1175C 554.824,1177.25 552.49,1179.75 550.5,1182.5C 540.287,1182.26 533.787,1186.92 531,1196.5C 529,1196.5 527,1196.5 525,1196.5C 523.629,1198.04 522.129,1199.37 520.5,1200.5C 520.369,1199.76 520.536,1199.09 521,1198.5C 530.161,1188.84 540.661,1181.01 552.5,1175C 592.598,1159.55 627.932,1166.72 658.5,1196.5C 671.881,1185.12 684.215,1172.79 695.5,1159.5 Z"/></g>
<g><path style="opacity:0.172" fill="#fef5f5" d="M 186.5,1150.5 C 191.789,1155.72 196.623,1161.39 201,1167.5C 233.846,1203.48 272.346,1231.48 316.5,1251.5C 304.333,1247.19 292.667,1241.69 281.5,1235C 270.599,1232.71 261.266,1227.37 253.5,1219C 246.07,1215.59 239.737,1210.59 234.5,1204C 229.606,1202.77 226.606,1199.6 225.5,1194.5C 223.833,1192.17 221.833,1190.17 219.5,1188.5C 217.076,1188.02 214.41,1187.36 211.5,1186.5C 211.415,1184.07 210.415,1182.07 208.5,1180.5C 203.088,1179.39 199.921,1175.73 199,1169.5C 196.891,1168.96 196.391,1167.96 197.5,1166.5C 193.32,1161.46 189.653,1156.12 186.5,1150.5 Z"/></g>
<g><path style="opacity:0.198" fill="#fef8f8" d="M 637.5,1231.5 C 623.982,1212.14 605.315,1203.64 581.5,1206C 557.114,1212.39 542.281,1227.89 537,1252.5C 535.51,1282.38 548.676,1302.54 576.5,1313C 605.204,1318.23 626.37,1308.06 640,1282.5C 645.804,1267.57 645.97,1252.57 640.5,1237.5C 641.931,1238.9 643.098,1240.57 644,1242.5C 646.476,1248.79 648.976,1255.13 651.5,1261.5C 647.048,1268.74 643.381,1276.41 640.5,1284.5C 641.428,1285.77 641.595,1287.1 641,1288.5C 640.667,1288.17 640.333,1287.83 640,1287.5C 639.803,1290.69 638.97,1293.69 637.5,1296.5C 634.571,1300.41 631.404,1304.07 628,1307.5C 625.557,1306.71 623.057,1306.88 620.5,1308C 612.578,1311.46 605.412,1314.96 599,1318.5C 597.135,1318.29 595.468,1317.63 594,1316.5C 592.278,1316.61 592.112,1317.11 593.5,1318C 588.5,1318.78 583.5,1319.11 578.5,1319C 577.5,1318 576.5,1317 575.5,1316C 570.658,1315.13 565.991,1313.8 561.5,1312C 555.605,1307.23 549.938,1302.23 544.5,1297C 543.21,1294.36 541.376,1291.53 539,1288.5C 538.667,1284.83 538.333,1281.17 538,1277.5C 536.427,1270.28 534.26,1263.28 531.5,1256.5C 532.445,1250.05 534.611,1244.05 538,1238.5C 538.687,1236.43 538.52,1234.43 537.5,1232.5C 539.747,1231.76 541.58,1230.42 543,1228.5C 545.402,1225.09 547.402,1221.42 549,1217.5C 551.948,1214.32 555.115,1211.49 558.5,1209C 562.531,1207.83 566.531,1206.66 570.5,1205.5C 570.312,1203.9 570.812,1202.56 572,1201.5C 572.333,1201.83 572.667,1202.17 573,1202.5C 575.606,1201.4 578.106,1200.07 580.5,1198.5C 581.478,1198.98 582.311,1199.64 583,1200.5C 585.47,1198.51 588.303,1198.01 591.5,1199C 594.951,1200.3 598.285,1201.8 601.5,1203.5C 603.527,1201.66 605.86,1201.16 608.5,1202C 610.175,1203.71 611.842,1205.38 613.5,1207C 620.582,1206.03 625.249,1208.87 627.5,1215.5C 629.937,1216.8 632.104,1218.47 634,1220.5C 634.89,1224.33 636.056,1228 637.5,1231.5 Z"/></g>
<g><path style="opacity:0.137" fill="#fef4f4" d="M 519.5,1201.5 C 519.573,1203.03 518.906,1204.03 517.5,1204.5C 517.427,1202.97 518.094,1201.97 519.5,1201.5 Z"/></g>
<g><path style="opacity:0.069" fill="#fef8f8" d="M 517.5,1204.5 C 517.446,1206.63 516.446,1207.97 514.5,1208.5C 514.738,1206.6 515.738,1205.26 517.5,1204.5 Z"/></g>
<g><path style="opacity:0.992" fill="#e20d17" d="M 637.5,1231.5 C 637.992,1233.82 638.992,1235.82 640.5,1237.5C 645.97,1252.57 645.804,1267.57 640,1282.5C 626.37,1308.06 605.204,1318.23 576.5,1313C 548.676,1302.54 535.51,1282.38 537,1252.5C 542.281,1227.89 557.114,1212.39 581.5,1206C 605.315,1203.64 623.982,1212.14 637.5,1231.5 Z"/></g>
<g><path style="opacity:0.118" fill="#ffe8e8" d="M 514.5,1208.5 C 514.573,1210.03 513.906,1211.03 512.5,1211.5C 512.427,1209.97 513.094,1208.97 514.5,1208.5 Z"/></g>
<g><path style="opacity:0.131" fill="#f5f6f9" d="M 1075.5,1210.5 C 1075.24,1212.94 1074.58,1215.27 1073.5,1217.5C 1074.68,1219.87 1074.01,1221.71 1071.5,1223C 1068.42,1231.58 1064.59,1239.74 1060,1247.5C 1056.26,1248.29 1054.43,1250.63 1054.5,1254.5C 1050.39,1262.81 1045.56,1270.81 1040,1278.5C 1036.92,1281.75 1033.75,1284.75 1030.5,1287.5C 1046.27,1262.29 1061.27,1236.62 1075.5,1210.5 Z"/></g>
<g><path style="opacity:0.082" fill="#fef4f4" d="M 637.5,1231.5 C 639.614,1232.78 640.614,1234.78 640.5,1237.5C 638.992,1235.82 637.992,1233.82 637.5,1231.5 Z"/></g>
<g><path style="opacity:0.016" fill="#fefffe" d="M 1054.5,1254.5 C 1055.83,1255.17 1055.83,1255.17 1054.5,1254.5 Z"/></g>
<g><path style="opacity:0.197" fill="#fef7f7" d="M 512.5,1211.5 C 512.43,1217.3 510.43,1222.3 506.5,1226.5C 507.274,1227.71 508.107,1227.71 509,1226.5C 509.167,1227 509.333,1227.5 509.5,1228C 508.711,1229.63 507.711,1231.13 506.5,1232.5C 507.836,1234.37 507.336,1235.71 505,1236.5C 504.667,1236.17 504.333,1235.83 504,1235.5C 499.866,1244.91 499.366,1254.58 502.5,1264.5C 501.687,1268.07 500.687,1271.57 499.5,1275C 487.3,1277.41 475.3,1278.41 463.5,1278C 462.457,1279.98 461.123,1280.48 459.5,1279.5C 458.808,1280.03 458.308,1280.69 458,1281.5C 457.667,1281.17 457.333,1280.83 457,1280.5C 455.562,1281.72 453.895,1282.39 452,1282.5C 442.916,1280.69 434.082,1279.19 425.5,1278C 418.027,1277.04 410.694,1277.54 403.5,1279.5C 400.411,1278.26 397.411,1276.76 394.5,1275C 388.186,1274.15 381.853,1273.49 375.5,1273C 376.888,1272.11 376.722,1271.61 375,1271.5C 373.674,1272.8 372.34,1274.13 371,1275.5C 369.175,1274.9 367.341,1274.23 365.5,1273.5C 364.872,1271.74 363.872,1270.24 362.5,1269C 360.112,1268.7 357.945,1267.86 356,1266.5C 354.119,1267.35 352.286,1267.02 350.5,1265.5C 346.121,1268.57 342.787,1267.57 340.5,1262.5C 332.435,1258.83 324.435,1255.16 316.5,1251.5C 374.75,1275.81 435.083,1282.97 497.5,1273C 498.357,1272.31 499.023,1271.48 499.5,1270.5C 498.365,1262.55 498.198,1254.55 499,1246.5C 500.874,1233.69 505.374,1222.03 512.5,1211.5 Z"/></g>
<g><path style="opacity:0.131" fill="#f4f6f9" d="M 1030.5,1287.5 C 1030.66,1289.2 1030.49,1290.87 1030,1292.5C 1019.03,1308.92 1007.2,1324.75 994.5,1340C 994.833,1340.33 995.167,1340.67 995.5,1341C 993.436,1344.65 990.603,1347.48 987,1349.5C 986.667,1349.17 986.333,1348.83 986,1348.5C 981.97,1354.52 977.97,1360.52 974,1366.5C 971.461,1367.74 968.961,1368.74 966.5,1369.5C 964.859,1374.31 962.193,1378.48 958.5,1382C 957.552,1382.48 956.552,1382.65 955.5,1382.5C 955.649,1383.55 955.483,1384.55 955,1385.5C 952.635,1386.29 950.468,1387.46 948.5,1389C 945.913,1393.26 942.913,1397.26 939.5,1401C 938.5,1401.33 937.5,1401.67 936.5,1402C 930.601,1407.11 924.934,1412.44 919.5,1418C 917.473,1419.88 915.14,1421.05 912.5,1421.5C 912.649,1422.55 912.483,1423.55 912,1424.5C 907.964,1426.29 904.131,1428.46 900.5,1431C 899.663,1432.01 899.33,1433.18 899.5,1434.5C 895.65,1436.1 891.984,1438.27 888.5,1441C 887.663,1442.01 887.33,1443.18 887.5,1444.5C 882.128,1446.37 877.462,1449.54 873.5,1454C 869.967,1453.87 867.967,1455.54 867.5,1459C 862.693,1459.32 859.026,1461.48 856.5,1465.5C 847.765,1469.99 839.932,1475.65 833,1482.5C 832.667,1482.17 832.333,1481.83 832,1481.5C 828.146,1484.85 823.979,1487.85 819.5,1490.5C 817.41,1489.21 816.076,1489.88 815.5,1492.5C 812.856,1493.4 810.19,1494.23 807.5,1495C 806.833,1496.33 806.167,1497.67 805.5,1499C 800.565,1499.71 796.232,1502.04 792.5,1506C 790.147,1507.96 787.647,1508.46 785,1507.5C 782.978,1509.52 780.978,1511.52 779,1513.5C 776.476,1514.1 773.976,1514.77 771.5,1515.5C 770.772,1517.19 769.772,1518.69 768.5,1520C 764.442,1520.34 760.442,1521.01 756.5,1522C 755.5,1523 754.5,1524 753.5,1525C 747.28,1525.11 742.613,1527.77 739.5,1533C 733.388,1532.07 727.888,1533.57 723,1537.5C 722.667,1537.17 722.333,1536.83 722,1536.5C 721.155,1539.41 719.488,1540.41 717,1539.5C 713.661,1540.84 710.494,1542.5 707.5,1544.5C 706.035,1543.39 705.035,1543.89 704.5,1546C 693.821,1547.45 683.488,1549.78 673.5,1553C 669.71,1553.79 666.71,1555.79 664.5,1559C 662.444,1559.31 660.444,1559.81 658.5,1560.5C 657.914,1560.29 657.414,1559.96 657,1559.5C 650.702,1561.83 644.368,1564.16 638,1566.5C 637.228,1566.36 636.561,1566.02 636,1565.5C 632.003,1565.93 628.17,1566.93 624.5,1568.5C 623.914,1568.29 623.414,1567.96 623,1567.5C 620.26,1568.28 617.426,1568.78 614.5,1569C 612.313,1571.14 609.147,1572.64 605,1573.5C 604.275,1572.94 603.442,1572.61 602.5,1572.5C 595.703,1575.69 588.87,1576.02 582,1573.5C 575.26,1574.78 568.593,1576.45 562,1578.5C 559.908,1578.12 557.908,1577.45 556,1576.5C 543.919,1579.02 531.752,1579.69 519.5,1578.5C 735.458,1560.33 905.791,1463.33 1030.5,1287.5 Z"/></g>
<g><path style="opacity:0.016" fill="#fefffe" d="M 368.5,1568.5 C 369.525,1568.9 369.692,1569.56 369,1570.5C 368.536,1569.91 368.369,1569.24 368.5,1568.5 Z"/></g>
<g><path style="opacity:0.155" fill="#f5f7f9" d="M 449.5,1578.5 C 472.5,1578.5 495.5,1578.5 518.5,1578.5C 508.587,1580.77 498.421,1582.11 488,1582.5C 476.352,1582.16 464.519,1581.33 452.5,1580C 451.263,1579.77 450.263,1579.27 449.5,1578.5 Z"/></g>
</svg>
